<svg id="crosshair" xmlns="http://www.w3.org/2000/svg" width="11.617" height="11.617" viewBox="0 0 11.617 11.617">
  <ellipse id="Ellipse_79" data-name="Ellipse 79" cx="2.358" cy="2.358" rx="2.358" ry="2.358" transform="translate(3.537 3.537)" fill="#30e4be"/>
  <path id="Path_1784" data-name="Path 1784" d="M11.133,5.325h-.509A4.848,4.848,0,0,0,6.293.993V.484a.484.484,0,0,0-.968,0V.993A4.848,4.848,0,0,0,.993,5.325H.484a.484.484,0,1,0,0,.968H.993a4.848,4.848,0,0,0,4.332,4.332v.509a.484.484,0,0,0,.968,0v-.509a4.848,4.848,0,0,0,4.332-4.332h.509a.484.484,0,1,0,0-.968ZM6.286,9.649a.478.478,0,0,0-.955,0A3.876,3.876,0,0,1,1.969,6.286a.478.478,0,0,0,0-.955A3.876,3.876,0,0,1,5.331,1.969a.478.478,0,0,0,.955,0A3.876,3.876,0,0,1,9.648,5.331a.478.478,0,0,0,0,.955A3.877,3.877,0,0,1,6.286,9.649Z" transform="translate(0 0)" fill="#30e4be"/>
</svg>
