<svg xmlns="http://www.w3.org/2000/svg" width="12.351" height="16.214" viewBox="0 0 12.351 16.214">
  <g id="google-docs" transform="translate(-61)">
    <path id="Path_1788" data-name="Path 1788" d="M73.211,3.939l-3.8-3.8A.476.476,0,0,0,69.075,0h-6.65A1.427,1.427,0,0,0,61,1.425V14.789a1.427,1.427,0,0,0,1.425,1.425h9.5a1.427,1.427,0,0,0,1.425-1.425V4.275A.479.479,0,0,0,73.211,3.939ZM69.55,1.622,71.729,3.8h-1.7a.476.476,0,0,1-.475-.475Zm2.375,13.642h-9.5a.476.476,0,0,1-.475-.475V1.425A.476.476,0,0,1,62.425.95H68.6V3.325A1.427,1.427,0,0,0,70.025,4.75H72.4V14.789A.476.476,0,0,1,71.926,15.264Z"/>
    <path id="Path_1789" data-name="Path 1789" d="M157.175,212h-5.7a.475.475,0,1,0,0,.95h5.7a.475.475,0,0,0,0-.95Z" transform="translate(-87.15 -205.286)"/>
    <path id="Path_1790" data-name="Path 1790" d="M157.175,272h-5.7a.475.475,0,1,0,0,.95h5.7a.475.475,0,1,0,0-.95Z" transform="translate(-87.15 -263.386)"/>
    <path id="Path_1791" data-name="Path 1791" d="M157.175,332h-5.7a.475.475,0,1,0,0,.95h5.7a.475.475,0,1,0,0-.95Z" transform="translate(-87.15 -321.486)"/>
    <path id="Path_1792" data-name="Path 1792" d="M155.275,392h-3.8a.475.475,0,1,0,0,.95h3.8a.475.475,0,1,0,0-.95Z" transform="translate(-87.15 -379.586)"/>
  </g>
</svg>
