<svg xmlns="http://www.w3.org/2000/svg" width="19.211" height="19.212" viewBox="0 0 19.211 19.212">
  <path id="home" d="M19.194,8.356h0L11.355.518a1.768,1.768,0,0,0-2.5,0L1.021,8.351l-.008.008A1.768,1.768,0,0,0,2.19,11.372l.055,0h.312v5.767a2.072,2.072,0,0,0,2.07,2.07H7.693a.563.563,0,0,0,.563-.563V14.128a.946.946,0,0,1,.945-.944h1.808a.945.945,0,0,1,.944.944v4.522a.563.563,0,0,0,.563.563h3.066a2.072,2.072,0,0,0,2.07-2.07V11.375h.29a1.769,1.769,0,0,0,1.252-3.019Zm-.8,1.7a.639.639,0,0,1-.455.188h-.852a.563.563,0,0,0-.563.563v6.33a.945.945,0,0,1-.944.944h-2.5V14.128a2.072,2.072,0,0,0-2.07-2.07H9.2a2.073,2.073,0,0,0-2.07,2.07v3.959h-2.5a.945.945,0,0,1-.944-.944v-6.33a.563.563,0,0,0-.563-.563H2.255a.642.642,0,0,1-.443-1.1h0L9.65,1.314a.643.643,0,0,1,.909,0l7.835,7.835,0,0A.644.644,0,0,1,18.4,10.061Zm0,0" transform="translate(-0.499)"/>
</svg>
