<svg xmlns="http://www.w3.org/2000/svg" width="11.001" height="11.001" viewBox="0 0 11.001 11.001">
  <g id="Group_410" data-name="Group 410" transform="translate(-190.378 -438)">
    <path id="Subtraction_16" data-name="Subtraction 16" d="M-15797.141,4298.556a5.507,5.507,0,0,1-5.5-5.5,5.507,5.507,0,0,1,5.5-5.5,5.506,5.506,0,0,1,5.5,5.5A5.506,5.506,0,0,1-15797.141,4298.556Zm-1.162-2.3a.378.378,0,0,0-.262.079.348.348,0,0,0-.084.262,1.273,1.273,0,0,0,.1.46h2.812a.505.505,0,0,0,.333-.08.4.4,0,0,0,.084-.29.9.9,0,0,0-.1-.432h-.689c-.021-.515-.032-1.052-.036-1.6v-2.883a1.823,1.823,0,0,0-.032-.385c-.024-.093-.11-.156-.257-.187a4.918,4.918,0,0,0-.85-.043,4.852,4.852,0,0,0-1.094.075.372.372,0,0,0-.271.4.751.751,0,0,0,.1.38,1.466,1.466,0,0,1,.429.048.371.371,0,0,1,.218.246,2.346,2.346,0,0,1,.091.623c.013.321.021.949.021,1.721,0,.516-.011,1.054-.032,1.6Zm1.272-7.52a1.29,1.29,0,0,0-.849.25.781.781,0,0,0-.3.635.721.721,0,0,0,.233.571,1.181,1.181,0,0,0,.766.2,1.34,1.34,0,0,0,.9-.25.818.818,0,0,0,.281-.635.729.729,0,0,0-.233-.559A1.192,1.192,0,0,0-15797.03,4288.732Z" transform="translate(15993.02 -3849.554)" fill="#30e4be"/>
  </g>
</svg>
