<svg id="pen-tool" xmlns="http://www.w3.org/2000/svg" width="10.061" height="10.061" viewBox="0 0 10.061 10.061">
  <g id="Group_371" data-name="Group 371" transform="translate(5.639 0)">
    <g id="Group_370" data-name="Group 370">
      <path id="Path_1785" data-name="Path 1785" d="M291.329,2.589l-2.5-2.5a.3.3,0,0,0-.417,0l-1.329,1.329a.3.3,0,0,0,0,.417l2.5,2.5a.295.295,0,0,0,.417,0l1.33-1.329A.3.3,0,0,0,291.329,2.589Z" transform="translate(-286.994 0)" fill="#30e4be"/>
    </g>
  </g>
  <g id="Group_373" data-name="Group 373" transform="translate(0 2.238)">
    <g id="Group_372" data-name="Group 372">
      <path id="Path_1786" data-name="Path 1786" d="M7.811,116.407l-2.5-2.5-.01-.012L2.478,115.3a.3.3,0,0,0-.142.154L0,121.3l3.584-3.584a.874.874,0,0,1-.089-.379.885.885,0,1,1,.885.885A.874.874,0,0,1,4,118.132L.417,121.716l5.841-2.336a.3.3,0,0,0,.154-.142l1.41-2.821Z" transform="translate(0 -113.893)" fill="#30e4be"/>
    </g>
  </g>
  <g id="Group_375" data-name="Group 375" transform="translate(4.085 5.386)">
    <g id="Group_374" data-name="Group 374">
      <path id="Path_1787" data-name="Path 1787" d="M208.169,274.114a.295.295,0,1,0,.295.295A.3.3,0,0,0,208.169,274.114Z" transform="translate(-207.874 -274.114)" fill="#30e4be"/>
    </g>
  </g>
</svg>
