<svg xmlns="http://www.w3.org/2000/svg" width="24.092" height="16.868" viewBox="0 0 24.092 16.868">
  <g id="Group_412" data-name="Group 412" transform="translate(-580 -224.969)">
    <path id="Path_1754" data-name="Path 1754" d="M23.6,2.639A3.018,3.018,0,0,0,21.472.516C19.587,0,12.046,0,12.046,0S4.5,0,2.619.5A3.08,3.08,0,0,0,.5,2.639,31.806,31.806,0,0,0,0,8.434a31.689,31.689,0,0,0,.5,5.795A3.019,3.019,0,0,0,2.62,16.352c1.9.516,9.426.516,9.426.516s7.541,0,9.426-.5A3.018,3.018,0,0,0,23.6,14.249a31.807,31.807,0,0,0,.5-5.795A30.19,30.19,0,0,0,23.6,2.639Zm0,0" transform="translate(580 224.969)" fill="red"/>
    <path id="Polygon_3" data-name="Polygon 3" d="M4.75,0,9.5,8.637H0Z" transform="translate(596.842 228.653) rotate(90)" fill="#fff"/>
  </g>
</svg>
